<svg width="16" height="18" viewBox="0 0 16 18" fill="none" xmlns="http://www.w3.org/2000/svg">
<path d="M6.91591 12.0329L5.69898 10.7695L6.91591 9.49726L8.12426 10.7695L9.33262 9.49726L8.12426 8.23395L9.33262 6.97063L10.5495 8.23395L11.7579 6.97063L9.33262 4.43504L3.2737 10.7695L5.69898 13.3051L6.91591 12.0329ZM0 15.4555L2.67381 12.669L0.85699 10.7695L9.33262 1.89945L11.158 3.80786L12.3578 2.53559L11.158 1.26332L12.3578 0L16 3.80786L14.7916 5.06222L13.5747 3.80786L12.3578 5.06222L14.1832 6.97063L5.69898 15.8318L3.88216 13.9323L0 18V15.4555Z" fill="#4C9A83"/>
</svg>
