<svg width="8" height="16" viewBox="0 0 8 16" fill="none" xmlns="http://www.w3.org/2000/svg">
<path d="M0.888889 0C0.653141 0 0.427049 0.09463 0.26035 0.263073C0.0936507 0.431515 0 0.659972 0 0.898186C0 5.9909 0 9.11092 0 14.2036C0 15.2006 0.791111 16 1.77778 16H6.22222C7.20889 16 8 15.2006 8 14.2036V4.32359C8 3.3266 7.20889 2.52721 6.22222 2.52721H1.77778V0.898186C1.77778 0.659972 1.68413 0.431515 1.51743 0.263073C1.35073 0.09463 1.12464 0 0.888889 0ZM1.77778 4.32359H6.22222V7.91633H1.77778V4.32359Z" fill="#4C9A83"/>
</svg>
