<svg width="29" height="32" viewBox="0 0 29 32" fill="none" xmlns="http://www.w3.org/2000/svg">
<path d="M12.7469 20.8347L10.5919 18.6473L12.7469 16.4443L14.8867 18.6473L17.0265 16.4443L14.8867 14.2569L17.0265 12.0695L19.1815 14.2569L21.3213 12.0695L17.0265 7.67919L6.29718 18.6473L10.5919 23.0376L12.7469 20.8347ZM0.5 26.7608L5.23487 21.9361L2.01759 18.6473L17.0265 3.28887L20.259 6.59325L22.3836 4.39033L20.259 2.18741L22.3836 0L28.8333 6.59325L26.6935 8.76514L24.5386 6.59325L22.3836 8.76514L25.6161 12.0695L10.5919 27.4124L7.37467 24.1235L0.5 31.1667V26.7608Z" fill="white"/>
</svg>
