<svg width="26" height="25" viewBox="0 0 26 25" fill="none" xmlns="http://www.w3.org/2000/svg">
<path d="M2.80073 11.5692L12.0692 2.30073C15.15 -0.766911 20.1185 -0.766911 23.1993 2.30073C26.2669 5.36838 26.2669 10.35 23.1993 13.4308L13.9308 22.6993C10.85 25.7669 5.86838 25.7669 2.80073 22.6993C-0.266911 19.6185 -0.266911 14.65 2.80073 11.5692ZM4.6623 13.4308C3.28579 14.7942 2.82695 16.7475 3.2989 18.4911L11.1515 10.6515L16.71 16.21L21.3377 11.5692C23.3959 9.52412 23.3959 6.20739 21.3377 4.1623C19.2926 2.10409 15.9759 2.10409 13.9308 4.1623L4.6623 13.4308Z" fill="#F68749"/>
</svg>
