<svg width="16" height="17" viewBox="0 0 16 17" fill="none" xmlns="http://www.w3.org/2000/svg">
<path d="M7.2 0C6.77565 0 6.36869 0.170578 6.06863 0.474208C5.76857 0.777838 5.6 1.18965 5.6 1.61905C5.59439 1.6972 5.59439 1.77566 5.6 1.85381C3.296 2.5419 1.6 4.71143 1.6 7.28571V12.1429L0 13.7619V14.5714H14.4V13.7619L12.8 12.1429V7.28571C12.8 4.71143 11.104 2.5419 8.8 1.85381C8.80561 1.77566 8.80561 1.6972 8.8 1.61905C8.8 1.18965 8.63143 0.777838 8.33137 0.474208C8.03131 0.170578 7.62435 0 7.2 0ZM7.2 3.2381C8.26087 3.2381 9.27828 3.66454 10.0284 4.42362C10.7786 5.18269 11.2 6.21222 11.2 7.28571V12.9524H3.2V7.28571C3.2 6.21222 3.62143 5.18269 4.37157 4.42362C5.12172 3.66454 6.13913 3.2381 7.2 3.2381ZM14.4 4.04762V8.90476H16V4.04762H14.4ZM14.4 10.5238V12.1429H16V10.5238H14.4ZM5.6 15.381C5.6 15.8104 5.76857 16.2222 6.06863 16.5258C6.36869 16.8294 6.77565 17 7.2 17C7.62435 17 8.03131 16.8294 8.33137 16.5258C8.63143 16.2222 8.8 15.8104 8.8 15.381H5.6Z" fill="#CE0F0F"/>
</svg>
