<svg width="26" height="25" viewBox="0 0 26 25" fill="none" xmlns="http://www.w3.org/2000/svg">
<path d="M10.5348 11.2496C11.574 7.37083 12.3957 4.83333 14.2082 4.83333C16.0207 4.83333 16.8423 7.37083 17.8815 11.2496C19.0415 15.6117 20.3707 20.5417 25.0832 20.5417V18.125C22.4248 18.125 21.4582 15.1525 20.2136 10.6333C19.1382 6.5975 18.0144 2.41667 14.2082 2.41667C10.4019 2.41667 9.27817 6.5975 8.20275 10.6333C6.99442 15.1525 5.9915 18.125 3.33317 18.125V0H0.916504V24.1667H25.0832V21.75H3.33317V20.5417C8.04567 20.5417 9.37484 15.6117 10.5348 11.2496Z" fill="#5E5C72" fill-opacity="0.5"/>
</svg>
