<svg width="25" height="22" viewBox="0 0 25 22" fill="none" xmlns="http://www.w3.org/2000/svg">
<path d="M12.5002 0C6.0835 0 0.833496 4.32583 0.833496 9.66667C0.891829 12.2646 2.07016 14.7054 4.04183 16.3125C4.04183 17.0375 3.55183 18.9346 0.833496 21.75C3.5985 21.6171 6.24683 20.5417 8.38183 18.7292C9.71183 19.1279 11.1118 19.3333 12.5002 19.3333C18.9168 19.3333 24.1668 15.0075 24.1668 9.66667C24.1668 4.32583 18.9168 0 12.5002 0ZM12.5002 16.9167C7.3435 16.9167 3.16683 13.6663 3.16683 9.66667C3.16683 5.66708 7.3435 2.41667 12.5002 2.41667C17.6568 2.41667 21.8335 5.66708 21.8335 9.66667C21.8335 13.6663 17.6568 16.9167 12.5002 16.9167ZM18.3335 10.875V8.45833H16.0002V10.875H18.3335ZM13.6668 10.875V8.45833H11.3335V10.875H13.6668ZM9.00016 10.875V8.45833H6.66683V10.875H9.00016Z" fill="#5E5C72" fill-opacity="0.5"/>
</svg>
