<svg width="24" height="26" viewBox="0 0 24 26" fill="none" xmlns="http://www.w3.org/2000/svg">
<path d="M13.1733 18.577L10.6667 21.021V16.133M10.6667 4.979L13.1733 7.423L10.6667 9.854M16.9467 7.423L9.33333 0H8V9.854L1.88 3.9L0 5.733L7.45333 13L0 20.254L1.88 22.1L8 16.133V26H9.33333L16.9467 18.577L11.2133 13M22.04 6.123L20.3467 7.8C21.1867 9.334 21.6667 11.115 21.6667 13C21.6667 14.885 21.1867 16.666 20.3467 18.2L21.9467 19.786C23.24 17.784 24 15.431 24 12.883C24 10.4 23.28 8.099 22.04 6.123ZM14.9867 13L18.08 16.029C18.4533 15.08 18.6667 14.066 18.6667 13C18.6667 11.934 18.4533 10.92 18.0933 9.984L14.9867 13Z" fill="#F68749"/>
</svg>
