<svg width="26" height="26" viewBox="0 0 26 26" fill="none" xmlns="http://www.w3.org/2000/svg">
<path d="M0 26V6.5C0 6.15522 0.136964 5.82456 0.380761 5.58076C0.624558 5.33696 0.955218 5.2 1.3 5.2H6.5V0H19.5V5.2H24.7C25.0448 5.2 25.3754 5.33696 25.6192 5.58076C25.863 5.82456 26 6.15522 26 6.5V26H15.6V19.5H10.4V26H0ZM9.1 2.6V10.4H11.7V7.8H14.3V10.4H16.9V2.6H14.3V5.2H11.7V2.6H9.1ZM2.6 23.4H7.8V19.5H2.6V23.4ZM2.6 16.9H7.8V13H2.6V16.9ZM18.2 23.4H23.4V19.5H18.2V23.4ZM18.2 16.9H23.4V13H18.2V16.9ZM10.4 16.9H15.6V13H10.4V16.9Z" fill="#F68749"/>
</svg>
