<svg width="23" height="25" viewBox="0 0 23 25" fill="none" xmlns="http://www.w3.org/2000/svg">
<path d="M7.875 10.875H5.45833V13.2917H7.875V10.875ZM12.7083 10.875H10.2917V13.2917H12.7083V10.875ZM17.5417 10.875H15.125V13.2917H17.5417V10.875ZM19.9583 2.41667H18.75V0H16.3333V2.41667H6.66667V0H4.25V2.41667H3.04167C1.70042 2.41667 0.625 3.50417 0.625 4.83333V21.75C0.625 22.3909 0.879612 23.0056 1.33283 23.4588C1.78604 23.9121 2.40073 24.1667 3.04167 24.1667H19.9583C20.5993 24.1667 21.214 23.9121 21.6672 23.4588C22.1204 23.0056 22.375 22.3909 22.375 21.75V4.83333C22.375 4.19239 22.1204 3.5777 21.6672 3.12449C21.214 2.67128 20.5993 2.41667 19.9583 2.41667ZM19.9583 21.75H3.04167V8.45833H19.9583V21.75Z" fill="#3A3091"/>
</svg>
