<svg width="30" height="30" viewBox="0 0 30 30" fill="none" xmlns="http://www.w3.org/2000/svg">
<path d="M15 0C6.75 0 0 6.75 0 15V30H30V15C30 6.75 23.25 0 15 0ZM15 3C19.35 3 23.16 5.34 25.26 8.82C24.615 8.925 23.94 9 23.25 9C18.9 9 15.09 6.66 12.99 3.18C13.635 3.075 14.31 3 15 3ZM9.12 4.545C8.175 7.38 6.195 9.75 3.63 11.205C4.575 8.37 6.555 6 9.12 4.545ZM3 14.79C6.9 13.32 10.035 10.305 11.61 6.465C14.37 9.84 18.555 12 23.25 12C24.375 12 25.455 11.865 26.505 11.64C26.82 12.705 27 13.83 27 15C27 21.615 21.615 27 15 27C8.385 27 3 21.615 3 15V14.79ZM3 27V24C3.855 25.125 4.875 26.145 6 27H3ZM27 27H24C25.125 26.145 26.145 25.125 27 24V27ZM17.625 16.5C17.625 15.465 18.465 14.625 19.5 14.625C20.535 14.625 21.375 15.465 21.375 16.5C21.375 17.535 20.535 18.375 19.5 18.375C18.465 18.375 17.625 17.535 17.625 16.5ZM8.625 16.5C8.625 15.465 9.465 14.625 10.5 14.625C11.535 14.625 12.375 15.465 12.375 16.5C12.375 17.535 11.535 18.375 10.5 18.375C9.465 18.375 8.625 17.535 8.625 16.5Z" fill="#F68749"/>
</svg>
